# xmcd CD database file
#
# Track frame offsets:
#	150
#	16095
#	28085
#	41235
#	58427
#	71520
#	84197
#	97687
#	112370
#	128482
#	144182
#	158125
#	169905
#	185545
#
# Disc length: 2672 seconds
#
# Revision: 1
# Processed by: cddbd v1.5PL3 Copyright (c) Steve Scherf et al.
# Submitted via: CDex 1.51
#
DISCID=b70a6e0e
DTITLE=Eartha Kitt - Heavenly Eartha
DYEAR=2002
DGENRE=Jazz
TTITLE0=I Want To Be Evil
TTITLE1=Mountain High, Valley Low
TTITLE2=Just An Old-Fashioned Girl
TTITLE3=Long Gone (from Bowlin' Green)
TTITLE4=Jonny
TTITLE5=The Heel
TTITLE6=Dinner For One Please, James
TTITLE7=Beale Street Blues
TTITLE8=Do You Remember?
TTITLE9=The Memphis Blues
TTITLE10=Smoke Gets In Your Eyes
TTITLE11=Le Danseur de Charleston
TTITLE12=Santa Baby
TTITLE13=The Day That The Circus Left Town
EXTD=YEAR: 2002
EXTT0=
EXTT1=
EXTT2=
EXTT3=
EXTT4=
EXTT5=
EXTT6=
EXTT7=
EXTT8=
EXTT9=
EXTT10=
EXTT11=
EXTT12=
EXTT13=
PLAYORDER=
